<?xml version="1.0" standalone="no"?>
<!DOCTYPE svg PUBLIC "-//W3C//DTD SVG 20010904//EN"
 "http://www.w3.org/TR/2001/REC-SVG-20010904/DTD/svg10.dtd">
<svg version="1.0" xmlns="http://www.w3.org/2000/svg"
 width="380.000000pt" height="139.000000pt" viewBox="0 0 380.000000 139.000000"
 preserveAspectRatio="xMidYMid meet">

<g transform="translate(0.000000,139.000000) scale(0.100000,-0.100000)"
fill="#000000" stroke="none">
<path d="M1030 780 l0 -520 110 0 110 0 2 173 3 172 110 -172 110 -172 128 0
c70 -1 127 1 127 5 0 3 -51 76 -113 162 -62 86 -121 169 -131 184 l-18 27 126
166 126 165 -129 0 -129 0 -104 -162 -103 -161 -3 326 -2 327 -110 0 -110 0 0
-520z"/>
<path d="M1883 1281 c-39 -24 -53 -49 -53 -93 0 -117 184 -149 235 -41 15 30
15 42 6 74 -14 48 -47 71 -109 76 -35 3 -55 -1 -79 -16z"/>
<path d="M2260 780 l0 -520 110 0 110 0 0 520 0 520 -110 0 -110 0 0 -520z"/>
<path d="M2690 780 l0 -520 105 0 105 0 0 520 0 520 -105 0 -105 0 0 -520z"/>
<path d="M450 1257 c-80 -19 -122 -40 -170 -84 -59 -52 -83 -110 -83 -199 0
-126 65 -213 208 -277 193 -88 243 -129 231 -191 -13 -62 -65 -88 -172 -88
-79 1 -154 22 -216 61 l-48 31 0 -110 0 -109 67 -21 c131 -40 330 -36 436 9
58 25 113 74 140 125 18 33 22 58 22 131 0 80 -3 95 -27 137 -40 67 -86 101
-234 173 -140 67 -174 97 -174 150 0 60 63 97 166 97 71 0 196 -31 209 -53 18
-29 25 0 23 93 l-3 102 -45 14 c-65 19 -263 25 -330 9z"/>
<path d="M3263 980 c-155 -33 -241 -169 -188 -298 30 -70 76 -103 209 -148 79
-27 106 -47 106 -79 0 -44 -34 -60 -129 -60 -72 0 -95 4 -143 27 l-58 27 0
-88 0 -89 48 -12 c185 -47 384 -6 455 96 33 48 46 132 28 187 -17 50 -85 107
-162 136 -120 45 -149 61 -156 89 -17 69 112 96 230 48 l57 -24 0 84 0 83 -37
11 c-52 15 -209 21 -260 10z"/>
<path d="M1840 615 l0 -355 110 0 110 0 0 355 0 355 -110 0 -110 0 0 -355z"/>
</g>
</svg>
