<?xml version="1.0" standalone="no"?>
<!DOCTYPE svg PUBLIC "-//W3C//DTD SVG 20010904//EN"
 "http://www.w3.org/TR/2001/REC-SVG-20010904/DTD/svg10.dtd">
<svg version="1.0" xmlns="http://www.w3.org/2000/svg"
 width="512.000000pt" height="512.000000pt" viewBox="0 0 512.000000 512.000000"
 preserveAspectRatio="xMidYMid meet">

<g transform="translate(0.000000,512.000000) scale(0.100000,-0.100000)"
fill="#000000" stroke="none">
<path d="M2335 4920 c-319 -36 -590 -117 -860 -255 -584 -300 -1028 -845
-1200 -1472 -65 -235 -79 -350 -80 -618 0 -182 5 -269 19 -360 61 -404 216
-778 456 -1101 84 -112 292 -330 400 -417 198 -159 480 -316 710 -395 130 -45
351 -97 451 -107 76 -8 101 1 123 44 15 28 106 796 106 891 0 36 -6 53 -25 74
l-24 26 -335 0 c-212 0 -345 4 -363 11 -36 13 -82 57 -95 89 -5 14 -27 126
-48 250 -21 124 -45 241 -54 260 -41 97 -118 164 -231 201 -88 28 -134 69
-142 126 -3 23 -3 53 1 67 3 13 67 107 142 207 206 278 218 309 234 620 10
204 25 296 67 413 131 366 414 605 828 702 124 29 480 26 625 -5 195 -42 363
-112 495 -206 78 -56 202 -184 253 -260 138 -207 200 -448 189 -730 -9 -220
-47 -371 -156 -618 -111 -251 -162 -426 -198 -687 -14 -104 -17 -209 -17 -623
l-1 -499 28 -24 c41 -36 81 -31 163 18 298 180 587 466 773 765 135 218 243
479 300 723 45 195 56 297 55 520 0 302 -30 492 -124 772 -135 407 -388 774
-730 1060 -324 272 -742 459 -1170 523 -125 19 -452 27 -565 15z m465 -195
c310 -35 633 -145 897 -306 190 -116 420 -321 563 -499 351 -440 525 -1022
470 -1571 -50 -491 -262 -947 -604 -1298 -104 -106 -308 -281 -329 -281 -6 0
-7 155 -4 403 4 342 8 421 26 529 36 223 77 358 180 592 129 292 166 459 165
741 0 199 -14 291 -66 455 -186 582 -738 922 -1458 897 -242 -8 -384 -42 -587
-137 -358 -169 -602 -483 -694 -890 -12 -53 -23 -159 -29 -284 -6 -110 -15
-218 -21 -240 -15 -59 -48 -111 -186 -295 -159 -214 -168 -231 -168 -346 0
-78 4 -97 28 -147 43 -88 134 -158 243 -187 50 -13 89 -43 109 -81 8 -15 31
-126 51 -246 20 -121 46 -244 57 -273 27 -74 94 -143 176 -184 l66 -32 287 -3
c288 -4 288 -4 288 -25 -1 -35 -67 -618 -71 -621 -10 -9 -206 39 -326 80 -893
298 -1483 1136 -1483 2104 0 801 473 1562 1195 1923 389 194 800 269 1225 222z"/>
<path d="M2685 3956 c-32 -32 -37 -79 -33 -292 2 -153 6 -184 21 -207 35 -53
97 -58 143 -12 24 24 24 24 24 253 l0 229 -25 27 c-33 35 -95 37 -130 2z"/>
<path d="M2087 3710 c-33 -26 -44 -78 -24 -116 8 -16 80 -93 160 -171 142
-141 146 -143 189 -143 59 0 93 33 93 91 0 38 -7 47 -161 199 -147 146 -163
160 -196 160 -20 0 -46 -9 -61 -20z"/>
<path d="M3153 3567 c-181 -181 -189 -195 -137 -256 21 -26 33 -31 68 -31 40
0 46 4 198 158 93 93 159 168 163 183 8 31 -16 83 -44 99 -11 5 -34 10 -53 10
-29 0 -51 -19 -195 -163z"/>
<path d="M1853 3120 c-23 -9 -53 -57 -53 -85 0 -29 28 -71 55 -83 17 -8 94
-12 233 -12 188 0 210 2 239 20 58 35 50 136 -13 160 -32 12 -431 12 -461 0z"/>
<path d="M3184 3120 c-59 -24 -72 -104 -25 -151 l29 -29 217 0 c238 0 262 5
285 59 9 23 9 38 0 66 -20 60 -41 65 -277 64 -114 0 -218 -4 -229 -9z"/>
<path d="M2211 2626 c-163 -164 -164 -165 -158 -202 9 -56 41 -84 95 -84 44 0
45 1 196 156 83 86 155 165 159 177 21 55 -27 117 -92 117 -32 0 -48 -13 -200
-164z"/>
<path d="M3016 2759 c-55 -64 -33 -102 165 -288 123 -116 143 -131 173 -131
53 0 91 37 91 89 0 40 -6 46 -160 201 -155 156 -161 160 -201 160 -35 0 -47
-5 -68 -31z"/>
<path d="M2697 2639 c-39 -23 -47 -69 -47 -269 0 -247 12 -280 105 -280 25 0
43 8 60 25 l25 24 0 231 0 231 -25 24 c-26 27 -84 34 -118 14z"/>
</g>
</svg>
